<?xml version="1.0" encoding="iso-8859-1"?>
<!-- Generator: Adobe Illustrator 19.0.0, SVG Export Plug-In . SVG Version: 6.00 Build 0)  -->
<svg version="1.1" id="Capa_1" xmlns="http://www.w3.org/2000/svg" xmlns:xlink="http://www.w3.org/1999/xlink" x="0px" y="0px"
	 viewBox="0 0 496.485 496.485" style="enable-background:new 0 0 496.485 496.485;" xml:space="preserve">
<circle style="fill:#E1E6E9;" cx="248.623" cy="332.8" r="163.685"/>
<path style="fill:#2EA2DB;" d="M444.889,204.8c2.327-7.758,3.879-16.291,3.879-25.6c0-44.994-36.461-81.455-81.455-81.455
	c-13.188,0-24.824,3.103-35.685,8.533c-13.188-56.63-63.612-98.521-124.897-98.521c-71.37,0-128.776,57.406-128.776,128.776
	c0,10.861,1.552,20.945,3.879,30.255c-29.479,8.533-51.2,36.461-51.2,68.267c0,39.564,31.806,71.37,71.37,71.37h306.424
	c31.806,0,57.406-25.6,57.406-57.406C466.611,231.176,458.077,214.885,444.889,204.8z"/>
<path style="fill:#193651;" d="M409.205,314.182h-307.2c-43.442,0-79.127-35.685-79.127-79.127c0-32.582,20.17-62.061,50.424-73.697
	c-1.552-8.533-2.327-17.067-2.327-25.6C70.974,60.509,131.483,0,206.732,0c60.509,0,112.485,38.788,130.327,96.194
	c10.085-3.879,20.17-5.43,30.255-5.43c48.873,0,89.212,39.564,89.212,89.212c0,7.758-0.776,15.515-3.103,22.497
	c13.188,12.412,20.17,29.479,20.17,47.321C474.368,285.479,444.889,314.182,409.205,314.182z M206.732,15.515
	c-66.715,0-121.018,54.303-121.018,121.018c0,9.309,1.552,18.618,3.879,28.703c0.776,3.879-1.552,7.758-5.43,9.309
	c-27.152,7.758-45.77,33.358-45.77,61.285c0,34.909,28.703,63.612,63.612,63.612h306.424c27.152,0,49.648-22.497,49.648-49.648
	c0-14.739-6.982-29.479-18.618-38.788c-2.327-2.327-3.879-5.43-2.327-8.533c2.327-7.758,3.879-15.515,3.879-22.497
	c0-40.339-32.582-73.697-73.697-73.697c-10.861,0-21.721,2.327-32.582,7.758c-2.327,0.776-4.655,0.776-6.982,0
	c-2.327-0.776-3.879-3.103-3.879-5.43C311.459,53.527,263.362,15.515,206.732,15.515z"/>
<path style="fill:#FFFFFF;" d="M437.908,243.588c-1.552-6.982-5.43-13.188-10.861-17.842l-6.982-5.43
	c-4.655-3.879-6.206-10.085-4.655-15.515l3.103-9.309c5.43-15.515,3.103-32.582-6.982-46.545
	c-8.533-12.412-21.721-20.17-36.461-22.497c-10.861-1.552-20.945,0.776-30.255,5.43l-15.515,7.758
	c-7.758,3.879-17.842-0.776-20.17-9.309l-3.879-17.067c-11.636-49.648-58.182-83.006-109.382-76.8
	c-50.424,5.43-89.212,48.873-89.212,99.297c0,7.758,0.776,15.515,3.103,24.048l3.103,13.188c1.552,6.982-2.327,14.739-10.085,17.067
	l-11.636,3.103c-17.067,4.655-30.255,19.394-32.582,36.461c-3.103,26.376,17.842,48.873,43.442,48.873h306.424
	C427.047,278.497,441.011,262.206,437.908,243.588z"/>
<path style="fill:#E1E6E9;" d="M333.18,392.533H154.756c14.739,0,26.376,11.636,26.376,26.376c0,14.739-11.636,26.376-26.376,26.376
	H333.18c14.739,0,26.376-11.636,26.376-26.376C359.556,404.945,347.92,392.533,333.18,392.533z"/>
<path style="fill:#193651;" d="M333.18,453.042H154.756c-4.655,0-7.758-3.103-7.758-7.758c0-4.655,3.103-7.758,7.758-7.758
	c10.085,0,18.618-8.533,18.618-18.618s-8.533-18.618-18.618-18.618c-4.655,0-7.758-3.103-7.758-7.758s3.103-7.758,7.758-7.758
	H333.18c18.618,0,34.133,15.515,34.133,34.133C367.314,437.527,351.799,453.042,333.18,453.042z M183.459,437.527H333.18
	c10.085,0,18.618-8.533,18.618-18.618s-8.533-18.618-18.618-18.618H183.459c3.103,5.43,5.43,11.636,5.43,18.618
	C188.889,425.891,186.562,432.097,183.459,437.527z"/>
<rect x="137.689" y="168.339" style="fill:#FFFFFF;" width="155.927" height="224.194"/>
<path style="fill:#193651;" d="M299.047,162.909c-1.552-1.552-3.103-2.327-5.43-2.327H137.689c-4.655,0-7.758,3.103-7.758,7.758
	v224.194c0,4.655,3.103,7.758,7.758,7.758h155.927c4.655,0,7.758-3.103,7.758-7.758V168.339
	C301.374,166.012,300.599,164.461,299.047,162.909z M285.859,384.776H145.447V176.097h140.412L285.859,384.776L285.859,384.776z"/>
<rect x="163.289" y="194.715" style="fill:#FDBF5E;" width="103.952" height="172.218"/>
<rect x="183.459" y="217.212" style="fill:#FFFFFF;" width="65.164" height="38.788"/>
<path style="fill:#193651;" d="M247.847,263.758h-65.164c-4.655,0-7.758-3.103-7.758-7.758v-38.788c0-4.655,3.103-7.758,7.758-7.758
	h65.164c4.655,0,7.758,3.103,7.758,7.758V256C255.605,259.879,252.502,263.758,247.847,263.758z M191.217,248.242h49.648V224.97
	h-49.648V248.242z"/>
<path style="fill:#F16051;" d="M333.18,168.339h-39.564v224.194h39.564c14.739,0,26.376,11.636,26.376,26.376V194.715
	C359.556,179.976,347.92,168.339,333.18,168.339z"/>
<path style="fill:#193651;" d="M333.18,160.582h-39.564c-4.655,0-7.758,3.103-7.758,7.758v224.194c0,4.655,3.103,7.758,7.758,7.758
	h39.564c10.085,0,18.618,8.533,18.618,18.618c0,4.655,3.103,7.758,7.758,7.758s7.758-3.103,7.758-7.758V194.715
	C367.314,176.097,351.799,160.582,333.18,160.582z M351.799,390.206c-5.43-3.103-11.636-5.43-18.618-5.43h-31.806V176.097h31.806
	c10.085,0,18.618,8.533,18.618,18.618V390.206z"/>
<path style="fill:#FFFFFF;" d="M340.162,373.915c-2.327,0-4.655-0.776-6.982-0.776h-20.17V186.958h20.17
	c3.879,0,6.982,3.103,6.982,6.982V373.915z"/>
<g>
	<path style="fill:#193651;" d="M248.623,316.509h-66.715c-4.655,0-7.758-3.103-7.758-7.758s3.103-7.758,7.758-7.758h66.715
		c4.655,0,7.758,3.103,7.758,7.758S253.277,316.509,248.623,316.509z"/>
	<path style="fill:#193651;" d="M215.265,345.988h-33.358c-4.655,0-7.758-3.103-7.758-7.758c0-4.655,3.103-7.758,7.758-7.758h33.358
		c4.655,0,7.758,3.103,7.758,7.758S219.92,345.988,215.265,345.988z"/>
	<rect x="159.411" y="94.642" style="fill:#193651;" width="15.515" height="13.964"/>
	<rect x="197.423" y="94.642" style="fill:#193651;" width="15.515" height="13.964"/>
	<rect x="235.435" y="94.642" style="fill:#193651;" width="15.515" height="13.964"/>
</g>
<g>
</g>
<g>
</g>
<g>
</g>
<g>
</g>
<g>
</g>
<g>
</g>
<g>
</g>
<g>
</g>
<g>
</g>
<g>
</g>
<g>
</g>
<g>
</g>
<g>
</g>
<g>
</g>
<g>
</g>
</svg>
